<svg width="31" height="31" viewBox="0 0 31 31" fill="none" xmlns="http://www.w3.org/2000/svg">
<path d="M15.0769 0.5C6.79892 0.5 0.0769196 7.222 0.0769196 15.5C0.0769196 23.778 6.79892 30.5 15.0769 30.5C23.3549 30.5 30.0769 23.778 30.0769 15.5C30.0769 7.222 23.3549 0.5 15.0769 0.5ZM15.0769 1.5C22.8149 1.5 29.0769 7.762 29.0769 15.5C29.0769 23.238 22.8149 29.5 15.0769 29.5C7.33892 29.5 1.07692 23.238 1.07692 15.5C1.07692 7.762 7.33892 1.5 15.0769 1.5ZM15.0769 3.5C8.45592 3.5 3.07692 8.879 3.07692 15.5C3.07692 22.122 8.45592 27.5 15.0769 27.5C21.6979 27.5 27.0769 22.122 27.0769 15.5C27.0769 8.879 21.6979 3.5 15.0769 3.5ZM15.0769 4.5C20.4739 4.5 24.9469 8.377 25.8869 13.5H22.8409C21.5559 11.585 18.4889 10.5 15.0649 10.5C15.0643 10.5 15.0636 10.5 15.0629 10.5C11.6509 10.5 8.60292 11.592 7.32492 13.5H4.26592C5.20692 8.377 9.67992 4.5 15.0769 4.5ZM15.0649 11.5C18.3389 11.5 21.1699 12.703 22.0729 14.154L22.0709 17.604C20.8125 17.7187 19.634 18.2707 18.7403 19.164C17.8466 20.0574 17.2941 21.2356 17.1789 22.494H12.9749C12.8602 21.2358 12.3081 20.0576 11.4147 19.1642C10.5214 18.2708 9.34314 17.7187 8.08492 17.604L8.08092 14.172C8.96892 12.72 11.7909 11.504 15.0649 11.5ZM20.5949 13.783C20.5782 13.7828 20.5615 13.7835 20.5449 13.785C20.4499 13.7913 20.3587 13.8246 20.2819 13.881L19.2919 14.59C19.2338 14.626 19.1837 14.6736 19.1446 14.7298C19.1056 14.786 19.0786 14.8496 19.0651 14.9167C19.0517 14.9838 19.0521 15.0529 19.0665 15.1198C19.0808 15.1867 19.1087 15.2499 19.1485 15.3056C19.1883 15.3612 19.239 15.4082 19.2977 15.4434C19.3563 15.4787 19.4215 15.5015 19.4893 15.5106C19.5571 15.5196 19.6261 15.5146 19.6919 15.496C19.7577 15.4773 19.819 15.4453 19.8719 15.402L20.8619 14.695C20.9488 14.6354 21.0146 14.5498 21.05 14.4506C21.0854 14.3513 21.0885 14.2434 21.0589 14.1423C21.0292 14.0411 20.9684 13.9519 20.8851 13.8874C20.8018 13.8229 20.7002 13.7864 20.5949 13.783ZM4.12692 14.5H7.07992L7.08192 16.5H4.12692C4.09692 16.17 4.07692 15.838 4.07692 15.5C4.07692 15.163 4.09792 14.83 4.12692 14.5ZM15.0769 14.5C13.9779 14.5 13.0769 15.401 13.0769 16.5C13.0769 17.599 13.9779 18.5 15.0769 18.5C16.1759 18.5 17.0769 17.599 17.0769 16.5C17.0769 15.401 16.1759 14.5 15.0769 14.5ZM23.0729 14.5H26.0259C26.0559 14.83 26.0769 15.163 26.0769 15.5C26.0769 15.838 26.0559 16.17 26.0269 16.5H23.0709L23.0729 14.5ZM15.0769 15.5C15.6349 15.5 16.0769 15.942 16.0769 16.5C16.0769 17.058 15.6349 17.5 15.0769 17.5C14.5189 17.5 14.0769 17.058 14.0769 16.5C14.0769 15.942 14.5189 15.5 15.0769 15.5ZM20.5949 15.783C20.5782 15.7828 20.5615 15.7835 20.5449 15.785C20.4499 15.7913 20.3587 15.8246 20.2819 15.881L19.2919 16.59C19.2338 16.626 19.1837 16.6736 19.1446 16.7298C19.1056 16.786 19.0786 16.8496 19.0651 16.9167C19.0517 16.9838 19.0521 17.0529 19.0665 17.1198C19.0808 17.1867 19.1087 17.2499 19.1485 17.3056C19.1883 17.3612 19.239 17.4082 19.2977 17.4434C19.3563 17.4787 19.4215 17.5015 19.4893 17.5106C19.5571 17.5196 19.6261 17.5146 19.6919 17.496C19.7577 17.4773 19.819 17.4453 19.8719 17.402L20.8619 16.695C20.9488 16.6354 21.0146 16.5498 21.05 16.4506C21.0854 16.3513 21.0885 16.2434 21.0589 16.1423C21.0292 16.0411 20.9684 15.9519 20.8851 15.8874C20.8018 15.8229 20.7002 15.7864 20.5949 15.783ZM4.26592 17.5H7.08492V18.002C7.08492 18.1346 7.1376 18.2618 7.23137 18.3556C7.32513 18.4493 7.45231 18.502 7.58492 18.502C8.17511 18.5009 8.75971 18.6164 9.30518 18.8418C9.85065 19.0672 10.3463 19.398 10.7636 19.8153C11.1809 20.2327 11.5118 20.7283 11.7371 21.2737C11.9625 21.8192 12.078 22.4038 12.0769 22.994C12.0769 23.1266 12.1296 23.2538 12.2234 23.3476C12.3171 23.4413 12.4443 23.494 12.5769 23.494H13.0769V26.309C10.8893 25.9052 8.87576 24.8469 7.30264 23.2739C5.72953 21.701 4.66996 19.6876 4.26592 17.5ZM23.0709 17.5H25.8879C25.4838 19.6877 24.4251 21.7012 22.8518 23.2742C21.2785 24.8471 19.2647 25.9054 17.0769 26.309V23.494H17.5769C17.7095 23.494 17.8367 23.4413 17.9305 23.3476C18.0242 23.2538 18.0769 23.1266 18.0769 22.994C18.0761 22.4037 18.1918 21.8191 18.4174 21.2736C18.643 20.7281 18.9741 20.2325 19.3915 19.8152C19.809 19.3979 20.3048 19.0671 20.8504 18.8417C21.3959 18.6164 21.9806 18.5009 22.5709 18.502C22.7035 18.502 22.8307 18.4493 22.9245 18.3556C23.0182 18.2618 23.0709 18.1346 23.0709 18.002V17.5ZM14.0769 23.494H16.0769V26.447C15.7469 26.477 15.4149 26.5 15.0769 26.5C14.7389 26.5 14.4069 26.477 14.0769 26.447V23.494Z" fill="#242424"/>
</svg>
