<svg width="32" height="31" viewBox="0 0 32 31" fill="none" xmlns="http://www.w3.org/2000/svg">
<g clip-path="url(#clip0_226_35)">
<path d="M15.9539 17.3462C20.6154 17.3462 24.3539 13.5615 24.3539 8.94615C24.3539 4.33077 20.6154 0.5 15.9539 0.5C11.2923 0.5 7.55386 4.28462 7.55386 8.9C7.55386 13.5154 11.2923 17.3462 15.9539 17.3462ZM15.9539 2.71538C19.3692 2.71538 22.1385 5.48462 22.1385 8.9C22.1385 12.3154 19.3692 15.0846 15.9539 15.0846C12.5385 15.0846 9.76924 12.3615 9.76924 8.94615C9.76924 5.53077 12.5385 2.71538 15.9539 2.71538ZM1.36924 30.5H30.6308C31.2308 30.5 31.7385 29.9923 31.7385 29.3923C31.7385 23.5769 26.9846 18.8231 21.1692 18.8231H10.8308C5.0154 18.8231 0.261551 23.5769 0.261551 29.3923C0.261551 29.9923 0.769243 30.5 1.36924 30.5ZM10.8308 21.0385H21.1692C25.4154 21.0385 28.8769 24.1769 29.4308 28.2846H2.56924C3.12309 24.1769 6.58463 21.0385 10.8308 21.0385Z" fill="#242424"/>
</g>
<defs>
<clipPath id="clip0_226_35">
<rect width="31.8462" height="30" fill="white" transform="translate(0.0769196 0.5)"/>
</clipPath>
</defs>
</svg>
