<svg width="31" height="31" viewBox="0 0 31 31" fill="none" xmlns="http://www.w3.org/2000/svg">
<g clip-path="url(#clip0_226_20)">
<path d="M2.07692 24C2.07798 24.9279 2.44707 25.8176 3.10322 26.4737C3.75936 27.1299 4.64899 27.4989 5.57692 27.5H21.5769C22.5049 27.4989 23.3945 27.1299 24.0506 26.4737C24.7068 25.8176 25.0759 24.9279 25.0769 24V23C25.0759 22.0721 24.7068 21.1824 24.0506 20.5263C23.3945 19.8701 22.5049 19.5011 21.5769 19.5H5.57692C4.64899 19.5011 3.75936 19.8701 3.10322 20.5263C2.44707 21.1824 2.07798 22.0721 2.07692 23V24ZM3.07692 23C3.07771 22.3372 3.34136 21.7018 3.81003 21.2331C4.2787 20.7644 4.91412 20.5008 5.57692 20.5H21.5769C22.2397 20.5008 22.8751 20.7644 23.3438 21.2331C23.8125 21.7018 24.0761 22.3372 24.0769 23V24C24.0761 24.6628 23.8125 25.2982 23.3438 25.7669C22.8751 26.2356 22.2397 26.4992 21.5769 26.5H5.57692C4.91412 26.4992 4.2787 26.2356 3.81003 25.7669C3.34136 25.2982 3.07771 24.6628 3.07692 24V23Z" fill="#242424"/>
<path d="M11.0769 25.5001C11.4725 25.5001 11.8592 25.3828 12.1881 25.163C12.517 24.9433 12.7733 24.6309 12.9247 24.2655C13.0761 23.9 13.1157 23.4979 13.0385 23.1099C12.9613 22.722 12.7708 22.3656 12.4911 22.0859C12.2114 21.8062 11.8551 21.6157 11.4671 21.5385C11.0791 21.4614 10.677 21.501 10.3116 21.6523C9.9461 21.8037 9.63374 22.0601 9.41398 22.389C9.19422 22.7179 9.07692 23.1045 9.07692 23.5001C9.07692 24.0305 9.28763 24.5392 9.66271 24.9143C10.0378 25.2894 10.5465 25.5001 11.0769 25.5001ZM11.0769 22.5001C11.2747 22.5001 11.468 22.5588 11.6325 22.6686C11.7969 22.7785 11.9251 22.9347 12.0008 23.1174C12.0765 23.3001 12.0963 23.5012 12.0577 23.6952C12.0191 23.8892 11.9239 24.0674 11.784 24.2072C11.6442 24.3471 11.466 24.4423 11.272 24.4809C11.078 24.5195 10.877 24.4997 10.6942 24.424C10.5115 24.3483 10.3553 24.2201 10.2455 24.0557C10.1356 23.8912 10.0769 23.6979 10.0769 23.5001C10.0769 23.2349 10.1823 22.9805 10.3698 22.793C10.5573 22.6055 10.8117 22.5001 11.0769 22.5001ZM16.0769 25.5001C16.4725 25.5001 16.8592 25.3828 17.1881 25.163C17.517 24.9433 17.7733 24.6309 17.9247 24.2655C18.0761 23.9 18.1157 23.4979 18.0385 23.1099C17.9613 22.722 17.7708 22.3656 17.4911 22.0859C17.2114 21.8062 16.8551 21.6157 16.4671 21.5385C16.0791 21.4614 15.677 21.501 15.3116 21.6523C14.9461 21.8037 14.6337 22.0601 14.414 22.389C14.1942 22.7179 14.0769 23.1045 14.0769 23.5001C14.0769 24.0305 14.2876 24.5392 14.6627 24.9143C15.0378 25.2894 15.5465 25.5001 16.0769 25.5001ZM16.0769 22.5001C16.2747 22.5001 16.468 22.5588 16.6325 22.6686C16.7969 22.7785 16.9251 22.9347 17.0008 23.1174C17.0765 23.3001 17.0963 23.5012 17.0577 23.6952C17.0191 23.8892 16.9239 24.0674 16.784 24.2072C16.6442 24.3471 16.466 24.4423 16.272 24.4809C16.078 24.5195 15.877 24.4997 15.6942 24.424C15.5115 24.3483 15.3553 24.2201 15.2454 24.0557C15.1356 23.8912 15.0769 23.6979 15.0769 23.5001C15.0769 23.2349 15.1823 22.9805 15.3698 22.793C15.5573 22.6055 15.8117 22.5001 16.0769 22.5001ZM21.0769 25.5001C21.4725 25.5001 21.8592 25.3828 22.1881 25.163C22.517 24.9433 22.7733 24.6309 22.9247 24.2655C23.0761 23.9 23.1157 23.4979 23.0385 23.1099C22.9613 22.722 22.7708 22.3656 22.4911 22.0859C22.2114 21.8062 21.8551 21.6157 21.4671 21.5385C21.0791 21.4614 20.677 21.501 20.3116 21.6523C19.9461 21.8037 19.6337 22.0601 19.414 22.389C19.1942 22.7179 19.0769 23.1045 19.0769 23.5001C19.0769 24.0305 19.2876 24.5392 19.6627 24.9143C20.0378 25.2894 20.5465 25.5001 21.0769 25.5001ZM21.0769 22.5001C21.2747 22.5001 21.468 22.5588 21.6325 22.6686C21.7969 22.7785 21.9251 22.9347 22.0008 23.1174C22.0765 23.3001 22.0963 23.5012 22.0577 23.6952C22.0191 23.8892 21.9239 24.0674 21.784 24.2072C21.6442 24.3471 21.466 24.4423 21.272 24.4809C21.078 24.5195 20.877 24.4997 20.6942 24.424C20.5115 24.3483 20.3553 24.2201 20.2454 24.0557C20.1356 23.8912 20.0769 23.6979 20.0769 23.5001C20.0769 23.2349 20.1823 22.9805 20.3698 22.793C20.5573 22.6055 20.8117 22.5001 21.0769 22.5001ZM6.07692 25.5001C6.47248 25.5001 6.85916 25.3828 7.18806 25.163C7.51696 24.9433 7.7733 24.6309 7.92468 24.2655C8.07605 23.9 8.11566 23.4979 8.03849 23.1099C7.96132 22.722 7.77084 22.3656 7.49113 22.0859C7.21143 21.8062 6.85506 21.6157 6.4671 21.5385C6.07914 21.4614 5.677 21.501 5.31155 21.6523C4.9461 21.8037 4.63374 22.0601 4.41398 22.389C4.19422 22.7179 4.07692 23.1045 4.07692 23.5001C4.07692 24.0305 4.28763 24.5392 4.66271 24.9143C5.03778 25.2894 5.54649 25.5001 6.07692 25.5001ZM6.07692 22.5001C6.2747 22.5001 6.46804 22.5588 6.63249 22.6686C6.79694 22.7785 6.92511 22.9347 7.0008 23.1174C7.07649 23.3001 7.09629 23.5012 7.0577 23.6952C7.01912 23.8892 6.92388 24.0674 6.78403 24.2072C6.64417 24.3471 6.46599 24.4423 6.27201 24.4809C6.07803 24.5195 5.87696 24.4997 5.69424 24.424C5.51151 24.3483 5.35533 24.2201 5.24545 24.0557C5.13557 23.8912 5.07692 23.6979 5.07692 23.5001C5.07692 23.2349 5.18228 22.9805 5.36981 22.793C5.55735 22.6055 5.8117 22.5001 6.07692 22.5001ZM23.0109 3.64661C22.9645 3.60012 22.9093 3.56324 22.8486 3.53808C22.7879 3.51291 22.7229 3.49996 22.6572 3.49996C22.5915 3.49996 22.5264 3.51291 22.4657 3.53808C22.405 3.56324 22.3499 3.60012 22.3034 3.64661L18.9034 7.04661L17.7954 5.68661C17.749 5.62898 17.6904 5.58235 17.6239 5.5501C17.5573 5.51785 17.4844 5.50078 17.4104 5.50011H10.0769C9.94431 5.50011 9.81713 5.55279 9.72337 5.64655C9.6296 5.74032 9.57692 5.8675 9.57692 6.00011V13.5001H8.96742L8.56192 11.8791C8.53493 11.7709 8.47253 11.6748 8.38465 11.6061C8.29677 11.5375 8.18845 11.5001 8.07692 11.5001H3.57692C3.44431 11.5001 3.31713 11.5528 3.22337 11.6466C3.1296 11.7403 3.07692 11.8675 3.07692 12.0001V18.0001C3.07692 18.1327 3.1296 18.2599 3.22337 18.3537C3.31713 18.4474 3.44431 18.5001 3.57692 18.5001H23.5769C23.7095 18.5001 23.8367 18.4474 23.9305 18.3537C24.0242 18.2599 24.0769 18.1327 24.0769 18.0001V14.0001C24.0769 13.8675 24.0242 13.7403 23.9305 13.6466C23.8367 13.5528 23.7095 13.5001 23.5769 13.5001H21.5769V10.5001C21.5769 10.385 21.5372 10.2733 21.4644 10.1841L21.2644 9.93911L24.9299 6.27361C25.0237 6.17984 25.0763 6.05269 25.0763 5.92011C25.0763 5.78752 25.0237 5.66037 24.9299 5.56661L24.7939 5.43061L25.3169 4.90811L25.3569 4.94811C25.6833 5.27211 26.1177 5.46437 26.5769 5.48811V7.50011C26.4836 7.4996 26.392 7.52523 26.3124 7.57409C26.2329 7.62296 26.1686 7.69311 26.1269 7.77661L25.6269 8.77661C25.5922 8.84601 25.5742 8.92252 25.5742 9.00011C25.5742 9.07769 25.5922 9.15421 25.6269 9.22361L26.1269 10.2236C26.1686 10.3071 26.2329 10.3773 26.3124 10.4261C26.392 10.475 26.4836 10.5006 26.5769 10.5001V11.2136L25.9499 11.8051C25.9256 11.828 25.9036 11.8533 25.8844 11.8806C25.7497 12.0779 25.6561 12.3003 25.6093 12.5346C25.5625 12.7689 25.5634 13.0102 25.6119 13.2441C25.6479 13.45 25.7248 13.6465 25.8383 13.822C25.9518 13.9975 26.0994 14.1484 26.2724 14.2656L26.3399 14.3086C26.532 14.4325 26.7554 14.4989 26.9839 14.5001C27.0759 14.5002 27.1675 14.4893 27.2569 14.4676C27.4317 14.4221 27.5954 14.3417 27.7382 14.2312C27.8811 14.1206 28 13.9824 28.0879 13.8246L28.5079 13.1116L27.6459 12.6046L27.2259 13.3181C27.1842 13.4013 27.1115 13.4649 27.0234 13.4951C26.9984 13.5005 26.9726 13.5007 26.9476 13.4956C26.9225 13.4906 26.8988 13.4803 26.8779 13.4656L26.8104 13.4226C26.6921 13.332 26.6141 13.1986 26.5929 13.0511C26.5538 12.8607 26.5842 12.6626 26.6784 12.4926L27.4204 11.7926C27.4699 11.7458 27.5094 11.6894 27.5363 11.6268C27.5632 11.5642 27.577 11.4967 27.5769 11.4286V10.5001C27.6703 10.5006 27.7619 10.475 27.8414 10.4261C27.9209 10.3773 27.9852 10.3071 28.0269 10.2236L28.5269 9.22361C28.5616 9.15421 28.5797 9.07769 28.5797 9.00011C28.5797 8.92252 28.5616 8.84601 28.5269 8.77661L28.0269 7.77661C27.9852 7.69311 27.9209 7.62296 27.8414 7.57409C27.7619 7.52523 27.6703 7.4996 27.5769 7.50011V5.26911C27.8372 5.13201 28.0615 4.93563 28.2319 4.69583C28.4023 4.45603 28.5139 4.17953 28.5577 3.88865C28.6015 3.59778 28.5762 3.30068 28.484 3.02134C28.3919 2.742 28.2353 2.48826 28.0269 2.28061L26.3909 0.646607C26.2972 0.552871 26.17 0.500214 26.0374 0.500214C25.9048 0.500214 25.7777 0.552871 25.6839 0.646607L23.7234 2.60711C23.6403 2.69128 23.5902 2.80251 23.5822 2.92053C23.5742 3.03854 23.6089 3.15551 23.6799 3.25011L23.1464 3.78211L23.0109 3.64661ZM10.5769 6.50011H17.1724L20.5769 10.6776V13.5001H17.0769V10.0001C17.0769 9.8675 17.0242 9.74032 16.9305 9.64655C16.8367 9.55278 16.7095 9.50011 16.5769 9.50011H13.5769C13.4443 9.50011 13.3171 9.55278 13.2234 9.64655C13.1296 9.74032 13.0769 9.8675 13.0769 10.0001V13.5001H10.5769V6.50011ZM16.0769 10.5001V13.5001H14.0769V10.5001H16.0769ZM23.0769 14.5001V17.5001H4.07692V12.5001H7.68642L8.09192 14.1211C8.11891 14.2293 8.18131 14.3254 8.26919 14.3941C8.35707 14.4628 8.46539 14.5001 8.57692 14.5001H23.0769ZM27.2679 9.50011H26.8859L26.6359 9.00011L26.8859 8.50011H27.2679L27.5179 9.00011L27.2679 9.50011ZM26.0374 1.70711L27.3174 2.98761C27.3997 3.06991 27.4649 3.16762 27.5095 3.27514C27.554 3.38267 27.5769 3.49791 27.5769 3.61428C27.5768 3.73066 27.5539 3.84589 27.5093 3.9534C27.4648 4.0609 27.3995 4.15858 27.3172 4.24086C27.2349 4.32313 27.1372 4.38839 27.0296 4.4329C26.9221 4.47741 26.8069 4.50031 26.6905 4.50029C26.5741 4.50027 26.4589 4.47732 26.3514 4.43276C26.2439 4.38821 26.1462 4.32291 26.0639 4.24061L24.7839 2.96061L26.0374 1.70711ZM24.1374 4.20711L24.3714 4.44161L24.0889 4.72361L23.8549 4.48911L24.1374 4.20711ZM23.8289 5.96211L20.6314 9.16211L19.5424 7.82561L22.6149 4.75011C22.6401 4.81102 22.6769 4.86641 22.7234 4.91311L23.6644 5.85461C23.711 5.90075 23.7662 5.93728 23.8269 5.96211H23.8289Z" fill="#242424"/>
<path d="M8.07692 29.5H0.0769196V30.5H8.07692V29.5Z" fill="#242424"/>
<path d="M19.0769 29.5H11.0769V30.5H19.0769V29.5Z" fill="#242424"/>
<path d="M30.0769 29.5H22.0769V30.5H30.0769V29.5Z" fill="#242424"/>
<path d="M20.0769 15.5H19.0769V16.5H20.0769V15.5Z" fill="#242424"/>
<path d="M22.0769 15.5H21.0769V16.5H22.0769V15.5Z" fill="#242424"/>
<path d="M16.0769 15.5H15.0769V16.5H16.0769V15.5Z" fill="#242424"/>
<path d="M18.0769 15.5H17.0769V16.5H18.0769V15.5Z" fill="#242424"/>
<path d="M12.0769 15.5H11.0769V16.5H12.0769V15.5Z" fill="#242424"/>
<path d="M14.0769 15.5H13.0769V16.5H14.0769V15.5Z" fill="#242424"/>
<path d="M8.07692 15.5H7.07692V16.5H8.07692V15.5Z" fill="#242424"/>
<path d="M6.07692 15.5H5.07692V16.5H6.07692V15.5Z" fill="#242424"/>
<path d="M10.0769 15.5H9.07692V16.5H10.0769V15.5Z" fill="#242424"/>
</g>
<defs>
<clipPath id="clip0_226_20">
<rect width="30" height="30" fill="white" transform="translate(0.0769196 0.5)"/>
</clipPath>
</defs>
</svg>
